<mxfile host="app.diagrams.net" modified="2021-11-11T03:00:30.375Z" agent="5.0 (Macintosh; Intel Mac OS X 10_15_7) AppleWebKit/537.36 (KHTML, like Gecko) Chrome/95.0.4638.69 Safari/537.36" etag="g2Zmexf6b-sXtsJjZC5y" version="15.7.2" type="github">
  <diagram id="o49EOAYNCXpL5I-9EHwg" name="Page-1">
    <mxGraphModel dx="1298" dy="808" grid="1" gridSize="10" guides="1" tooltips="1" connect="1" arrows="1" fold="1" page="1" pageScale="1" pageWidth="827" pageHeight="1169" math="0" shadow="0">
      <root>
        <mxCell id="0" />
        <mxCell id="1" parent="0" />
        <mxCell id="dQ3JFxydoTetMv5QScSs-1" value="Mysql" style="rounded=1;whiteSpace=wrap;html=1;fillColor=#d5e8d4;strokeColor=#82b366;" vertex="1" parent="1">
          <mxGeometry x="200" y="490" width="120" height="60" as="geometry" />
        </mxCell>
        <mxCell id="dQ3JFxydoTetMv5QScSs-2" value="平台" style="rounded=1;whiteSpace=wrap;html=1;fillColor=#d5e8d4;strokeColor=#82b366;" vertex="1" parent="1">
          <mxGeometry x="390" y="490" width="120" height="60" as="geometry" />
        </mxCell>
        <mxCell id="dQ3JFxydoTetMv5QScSs-18" style="edgeStyle=none;rounded=0;orthogonalLoop=1;jettySize=auto;html=1;entryX=0.5;entryY=0;entryDx=0;entryDy=0;strokeColor=#FF3333;" edge="1" parent="1" source="dQ3JFxydoTetMv5QScSs-3" target="dQ3JFxydoTetMv5QScSs-1">
          <mxGeometry relative="1" as="geometry" />
        </mxCell>
        <mxCell id="dQ3JFxydoTetMv5QScSs-31" style="edgeStyle=none;rounded=0;orthogonalLoop=1;jettySize=auto;html=1;entryX=0.425;entryY=0;entryDx=0;entryDy=0;entryPerimeter=0;strokeColor=#FF3333;" edge="1" parent="1" source="dQ3JFxydoTetMv5QScSs-3" target="dQ3JFxydoTetMv5QScSs-2">
          <mxGeometry relative="1" as="geometry" />
        </mxCell>
        <mxCell id="dQ3JFxydoTetMv5QScSs-3" value="Data Logic" style="rounded=1;whiteSpace=wrap;html=1;fillColor=#f8cecc;strokeColor=#b85450;" vertex="1" parent="1">
          <mxGeometry x="200" y="370" width="120" height="60" as="geometry" />
        </mxCell>
        <mxCell id="dQ3JFxydoTetMv5QScSs-6" style="edgeStyle=orthogonalEdgeStyle;rounded=0;orthogonalLoop=1;jettySize=auto;html=1;entryX=1;entryY=0.5;entryDx=0;entryDy=0;strokeColor=#3333FF;" edge="1" parent="1" source="dQ3JFxydoTetMv5QScSs-4" target="dQ3JFxydoTetMv5QScSs-3">
          <mxGeometry relative="1" as="geometry" />
        </mxCell>
        <mxCell id="dQ3JFxydoTetMv5QScSs-7" style="rounded=0;orthogonalLoop=1;jettySize=auto;html=1;entryX=0.5;entryY=0;entryDx=0;entryDy=0;strokeColor=#3333FF;" edge="1" parent="1" source="dQ3JFxydoTetMv5QScSs-4" target="dQ3JFxydoTetMv5QScSs-1">
          <mxGeometry relative="1" as="geometry" />
        </mxCell>
        <mxCell id="dQ3JFxydoTetMv5QScSs-8" style="edgeStyle=orthogonalEdgeStyle;rounded=0;orthogonalLoop=1;jettySize=auto;html=1;entryX=0.5;entryY=0;entryDx=0;entryDy=0;strokeColor=#3333FF;" edge="1" parent="1" source="dQ3JFxydoTetMv5QScSs-4" target="dQ3JFxydoTetMv5QScSs-2">
          <mxGeometry relative="1" as="geometry" />
        </mxCell>
        <mxCell id="dQ3JFxydoTetMv5QScSs-4" value="Api Service Logic" style="rounded=1;whiteSpace=wrap;html=1;fillColor=#f8cecc;strokeColor=#b85450;" vertex="1" parent="1">
          <mxGeometry x="390" y="370" width="120" height="60" as="geometry" />
        </mxCell>
        <mxCell id="dQ3JFxydoTetMv5QScSs-20" style="edgeStyle=none;rounded=0;orthogonalLoop=1;jettySize=auto;html=1;entryX=0.5;entryY=0;entryDx=0;entryDy=0;strokeColor=#3333FF;" edge="1" parent="1" source="dQ3JFxydoTetMv5QScSs-5" target="dQ3JFxydoTetMv5QScSs-10">
          <mxGeometry relative="1" as="geometry" />
        </mxCell>
        <mxCell id="dQ3JFxydoTetMv5QScSs-5" value="对外接口" style="rounded=1;whiteSpace=wrap;html=1;fillColor=#ffe6cc;strokeColor=#d79b00;" vertex="1" parent="1">
          <mxGeometry x="390" y="30" width="120" height="60" as="geometry" />
        </mxCell>
        <mxCell id="dQ3JFxydoTetMv5QScSs-17" style="edgeStyle=orthogonalEdgeStyle;rounded=0;orthogonalLoop=1;jettySize=auto;html=1;entryX=0.5;entryY=0;entryDx=0;entryDy=0;strokeColor=#FF3333;" edge="1" parent="1" source="dQ3JFxydoTetMv5QScSs-9" target="dQ3JFxydoTetMv5QScSs-3">
          <mxGeometry relative="1" as="geometry" />
        </mxCell>
        <mxCell id="dQ3JFxydoTetMv5QScSs-9" value="Inner Service Logic" style="rounded=1;whiteSpace=wrap;html=1;fillColor=#f8cecc;strokeColor=#b85450;" vertex="1" parent="1">
          <mxGeometry x="200" y="260" width="120" height="60" as="geometry" />
        </mxCell>
        <mxCell id="dQ3JFxydoTetMv5QScSs-21" style="edgeStyle=none;rounded=0;orthogonalLoop=1;jettySize=auto;html=1;entryX=0.5;entryY=0;entryDx=0;entryDy=0;strokeColor=#3333FF;" edge="1" parent="1" source="dQ3JFxydoTetMv5QScSs-10" target="dQ3JFxydoTetMv5QScSs-4">
          <mxGeometry relative="1" as="geometry" />
        </mxCell>
        <mxCell id="dQ3JFxydoTetMv5QScSs-10" value="api接口router&lt;br&gt;（对外接口）" style="rounded=1;whiteSpace=wrap;html=1;fillColor=#fff2cc;strokeColor=#d6b656;" vertex="1" parent="1">
          <mxGeometry x="390" y="150" width="120" height="60" as="geometry" />
        </mxCell>
        <mxCell id="dQ3JFxydoTetMv5QScSs-16" style="edgeStyle=orthogonalEdgeStyle;rounded=0;orthogonalLoop=1;jettySize=auto;html=1;entryX=0.5;entryY=0;entryDx=0;entryDy=0;strokeColor=#FF3333;" edge="1" parent="1" source="dQ3JFxydoTetMv5QScSs-13" target="dQ3JFxydoTetMv5QScSs-9">
          <mxGeometry relative="1" as="geometry" />
        </mxCell>
        <mxCell id="dQ3JFxydoTetMv5QScSs-13" value="inner接口router" style="rounded=1;whiteSpace=wrap;html=1;fillColor=#fff2cc;strokeColor=#d6b656;" vertex="1" parent="1">
          <mxGeometry x="200" y="150" width="120" height="60" as="geometry" />
        </mxCell>
        <mxCell id="dQ3JFxydoTetMv5QScSs-15" style="edgeStyle=orthogonalEdgeStyle;rounded=0;orthogonalLoop=1;jettySize=auto;html=1;entryX=0.5;entryY=0;entryDx=0;entryDy=0;strokeColor=#FF3333;" edge="1" parent="1" source="dQ3JFxydoTetMv5QScSs-14" target="dQ3JFxydoTetMv5QScSs-13">
          <mxGeometry relative="1" as="geometry" />
        </mxCell>
        <mxCell id="dQ3JFxydoTetMv5QScSs-14" value="对内接口&lt;br&gt;（其他backend服务调用）" style="rounded=1;whiteSpace=wrap;html=1;fillColor=#ffe6cc;strokeColor=#d79b00;" vertex="1" parent="1">
          <mxGeometry x="200" y="30" width="120" height="60" as="geometry" />
        </mxCell>
        <mxCell id="dQ3JFxydoTetMv5QScSs-23" value="" style="line;strokeWidth=4;html=1;perimeter=backbonePerimeter;points=[];outlineConnect=0;" vertex="1" parent="1">
          <mxGeometry x="150" y="585" width="420" height="10" as="geometry" />
        </mxCell>
        <mxCell id="dQ3JFxydoTetMv5QScSs-24" value="" style="line;strokeWidth=4;html=1;perimeter=backbonePerimeter;points=[];outlineConnect=0;" vertex="1" parent="1">
          <mxGeometry x="150" y="460" width="420" height="10" as="geometry" />
        </mxCell>
        <mxCell id="dQ3JFxydoTetMv5QScSs-26" value="" style="line;strokeWidth=4;html=1;perimeter=backbonePerimeter;points=[];outlineConnect=0;" vertex="1" parent="1">
          <mxGeometry x="150" y="230" width="420" height="10" as="geometry" />
        </mxCell>
        <mxCell id="dQ3JFxydoTetMv5QScSs-27" value="" style="line;strokeWidth=4;html=1;perimeter=backbonePerimeter;points=[];outlineConnect=0;" vertex="1" parent="1">
          <mxGeometry x="150" y="110" width="420" height="10" as="geometry" />
        </mxCell>
        <mxCell id="dQ3JFxydoTetMv5QScSs-29" value="" style="line;strokeWidth=4;direction=south;html=1;perimeter=backbonePerimeter;points=[];outlineConnect=0;" vertex="1" parent="1">
          <mxGeometry x="150" y="110" width="10" height="490" as="geometry" />
        </mxCell>
        <mxCell id="dQ3JFxydoTetMv5QScSs-30" value="" style="line;strokeWidth=4;direction=south;html=1;perimeter=backbonePerimeter;points=[];outlineConnect=0;" vertex="1" parent="1">
          <mxGeometry x="561" y="110" width="10" height="490" as="geometry" />
        </mxCell>
      </root>
    </mxGraphModel>
  </diagram>
</mxfile>
